<svg class="main-svg" xmlns="http://www.w3.org/2000/svg" xmlns:xlink="http://www.w3.org/1999/xlink" width="1100" height="680" style="" viewBox="0 0 1100 680"><rect x="0" y="0" width="1100" height="680" style="fill: rgb(26, 26, 25); fill-opacity: 1;"/><defs id="defs-49ff7d"><g class="clips"><clipPath id="clip49ff7dxyplot" class="plotclip"><rect width="884" height="530"/></clipPath><clipPath class="axesclip" id="clip49ff7dx"><rect x="73" y="0" width="884" height="680"/></clipPath><clipPath class="axesclip" id="clip49ff7dy"><rect x="0" y="90" width="1100" height="530"/></clipPath><clipPath class="axesclip" id="clip49ff7dxy"><rect x="73" y="90" width="884" height="530"/></clipPath></g><g class="gradients"/><g class="patterns"/></defs><g class="bglayer"/><g class="layer-below"><g class="imagelayer"/><g class="shapelayer"/></g><g class="cartesianlayer"><g class="subplot xy"><g class="layer-subplot"><g class="shapelayer"/><g class="imagelayer"/></g><g class="minor-gridlayer"><g class="x"/><g class="y"/></g><g class="gridlayer"><g class="x"><path class="xgrid crisp" transform="translate(195.36,0)" d="M0,90v530" style="stroke: rgb(58, 58, 55); stroke-opacity: 1; stroke-width: 1px;"/><path class="xgrid crisp" transform="translate(317.72,0)" d="M0,90v530" style="stroke: rgb(58, 58, 55); stroke-opacity: 1; stroke-width: 1px;"/><path class="xgrid crisp" transform="translate(440.07,0)" d="M0,90v530" style="stroke: rgb(58, 58, 55); stroke-opacity: 1; stroke-width: 1px;"/><path class="xgrid crisp" transform="translate(562.4300000000001,0)" d="M0,90v530" style="stroke: rgb(58, 58, 55); stroke-opacity: 1; stroke-width: 1px;"/><path class="xgrid crisp" transform="translate(684.79,0)" d="M0,90v530" style="stroke: rgb(58, 58, 55); stroke-opacity: 1; stroke-width: 1px;"/><path class="xgrid crisp" transform="translate(807.15,0)" d="M0,90v530" style="stroke: rgb(58, 58, 55); stroke-opacity: 1; stroke-width: 1px;"/><path class="xgrid crisp" transform="translate(929.5,0)" d="M0,90v530" style="stroke: rgb(58, 58, 55); stroke-opacity: 1; stroke-width: 1px;"/></g><g class="y"><path class="ygrid crisp" transform="translate(0,617.47)" d="M73,0h884" style="stroke: rgb(58, 58, 55); stroke-opacity: 1; stroke-width: 1px;"/><path class="ygrid crisp" transform="translate(0,544.48)" d="M73,0h884" style="stroke: rgb(58, 58, 55); stroke-opacity: 1; stroke-width: 1px;"/><path class="ygrid crisp" transform="translate(0,471.49)" d="M73,0h884" style="stroke: rgb(58, 58, 55); stroke-opacity: 1; stroke-width: 1px;"/><path class="ygrid crisp" transform="translate(0,398.5)" d="M73,0h884" style="stroke: rgb(58, 58, 55); stroke-opacity: 1; stroke-width: 1px;"/><path class="ygrid crisp" transform="translate(0,325.51)" d="M73,0h884" style="stroke: rgb(58, 58, 55); stroke-opacity: 1; stroke-width: 1px;"/><path class="ygrid crisp" transform="translate(0,252.52)" d="M73,0h884" style="stroke: rgb(58, 58, 55); stroke-opacity: 1; stroke-width: 1px;"/><path class="ygrid crisp" transform="translate(0,179.53)" d="M73,0h884" style="stroke: rgb(58, 58, 55); stroke-opacity: 1; stroke-width: 1px;"/><path class="ygrid crisp" transform="translate(0,106.53999999999999)" d="M73,0h884" style="stroke: rgb(58, 58, 55); stroke-opacity: 1; stroke-width: 1px;"/></g></g><g class="zerolinelayer"/><g class="layer-between"><g class="shapelayer"/><g class="imagelayer"/></g><path class="xlines-below"/><path class="ylines-below"/><g class="overlines-below"/><g class="xaxislayer-below"/><g class="yaxislayer-below"/><g class="overaxes-below"/><g class="overplot"><g class="xy" transform="translate(73,90)" clip-path="url(#clip49ff7dxyplot)"><g class="scatterlayer mlayer"><g class="trace scatter trace91e769" style="stroke-miterlimit: 2; opacity: 1;"><g class="fills"><g><path class="js-fill" d="M0,495.25L36.83,471.11L73.67,450.76L110.5,425.38L147.33,403.05L184.17,381.2L221,362.24L257.83,341.72L294.67,316.54L331.5,296.35L405.17,253.73L478.83,207.44L515.67,186.92L552.5,163.33L589.33,142.65L626.17,116.64L663,97.76L699.83,81.12L736.67,59.43L773.5,52.06L810.33,41.48L847.17,33.48L884,26.5L810.33,41.68L773.5,53.34L736.67,61.63L699.83,82.29L626.17,121.54L589.33,145.76L552.5,166.7L515.67,189.65L442,233.3L405.17,256.59L294.67,320.67L257.83,343.82L184.17,387.88L147.33,408.7L110.5,431.52L73.67,453.39L36.83,476.54L0,496.96Z" style="fill: rgb(168, 204, 246); fill-opacity: 0.22; stroke-width: 0;"/></g></g><g class="errorbars"/><g class="lines"><path class="js-line" d="M0,495.25L36.83,471.11L73.67,450.76L110.5,425.38L147.33,403.05L184.17,381.2L221,362.24L257.83,341.72L294.67,316.54L331.5,296.35L405.17,253.73L478.83,207.44L515.67,186.92L552.5,163.33L589.33,142.65L626.17,116.64L663,97.76L699.83,81.12L736.67,59.43L773.5,52.06L810.33,41.48L847.17,33.48L884,26.5L810.33,41.68L773.5,53.34L736.67,61.63L699.83,82.29L626.17,121.54L589.33,145.76L552.5,166.7L515.67,189.65L442,233.3L405.17,256.59L294.67,320.67L257.83,343.82L184.17,387.88L147.33,408.7L110.5,431.52L73.67,453.39L36.83,476.54L0,496.96" style="vector-effect: none; fill: none; stroke: rgb(99, 110, 250); stroke-opacity: 1; stroke-width: 0px; opacity: 1;"/></g><g class="points"/><g class="text"/></g><g class="trace scatter trace6522a2" style="stroke-miterlimit: 2; opacity: 1;"><g class="fills"/><g class="errorbars"/><g class="lines"><path class="js-line" d="M0,495.79L36.83,474.93L73.67,451.69L184.17,385.97L221,364.52L257.83,343.29L294.67,319.42L331.5,297.42L405.17,254.95L442,231.98L478.83,210.39L552.5,165.56L589.33,145.4L626.17,119.7L663,100.81L699.83,81.61L736.67,61.28L773.5,52.62L810.33,41.56L847.17,33.6L884,26.53" style="vector-effect: none; fill: none; stroke: rgb(168, 204, 246); stroke-opacity: 1; stroke-width: 2px; opacity: 1;"/></g><g class="points"/><g class="text"/></g><g class="trace scatter trace5906e0" style="stroke-miterlimit: 2; opacity: 1;"><g class="fills"><g><path class="js-fill" d="M0,482.33L73.67,451.9L110.5,410.32L147.33,399.71L184.17,383.04L221,355.5L257.83,331.76L294.67,310.83L331.5,308.28L368.33,270.79L405.17,255.07L442,227.69L478.83,204.88L515.67,181.7L552.5,167.21L589.33,136.91L626.17,123.33L663,91.84L699.83,69.03L736.67,59.7L773.5,39.5L810.33,36.59L847.17,32.57L884,30.94L884,32.98L847.17,34.41L810.33,37.85L773.5,44.56L736.67,64.94L699.83,83.23L663,106.67L626.17,130.77L589.33,152.63L552.5,178.16L515.67,192.79L478.83,219.58L442,239.05L405.17,269.6L368.33,281.87L331.5,316.08L294.67,323.48L257.83,352.38L221,376.2L184.17,404.3L147.33,410.69L110.5,442.35L73.67,466.02L36.83,484.07L0,503.5Z" style="fill: rgb(109, 167, 236); fill-opacity: 0.22; stroke-width: 0;"/></g></g><g class="errorbars"/><g class="lines"><path class="js-line" d="M0,482.33L73.67,451.9L110.5,410.32L147.33,399.71L184.17,383.04L221,355.5L257.83,331.76L294.67,310.83L331.5,308.28L368.33,270.79L405.17,255.07L442,227.69L478.83,204.88L515.67,181.7L552.5,167.21L589.33,136.91L626.17,123.33L663,91.84L699.83,69.03L736.67,59.7L773.5,39.5L810.33,36.59L847.17,32.57L884,30.94L884,32.98L847.17,34.41L810.33,37.85L773.5,44.56L736.67,64.94L699.83,83.23L663,106.67L626.17,130.77L589.33,152.63L552.5,178.16L515.67,192.79L478.83,219.58L442,239.05L405.17,269.6L368.33,281.87L331.5,316.08L294.67,323.48L257.83,352.38L221,376.2L184.17,404.3L147.33,410.69L110.5,442.35L73.67,466.02L36.83,484.07L0,503.5" style="vector-effect: none; fill: none; stroke: rgb(0, 204, 150); stroke-opacity: 1; stroke-width: 0px; opacity: 1;"/></g><g class="points"/><g class="text"/></g><g class="trace scatter trace2133cf" style="stroke-miterlimit: 2; opacity: 1;"><g class="fills"/><g class="errorbars"/><g class="lines"><path class="js-line" d="M0,491.42L36.83,471.24L73.67,456.56L110.5,432.22L147.33,405.19L184.17,391.56L221,363.63L257.83,343.26L294.67,317.45L331.5,311.71L368.33,274.04L405.17,267.25L442,235.2L478.83,212.94L515.67,185.74L552.5,174.11L589.33,142.85L626.17,129.8L663,98.99L699.83,77.63L736.67,63.13L773.5,40.63L810.33,37.09L847.17,33.67L884,32.7" style="vector-effect: none; fill: none; stroke: rgb(109, 167, 236); stroke-opacity: 1; stroke-width: 2px; opacity: 1;"/></g><g class="points"/><g class="text"/></g><g class="trace scatter traced32745" style="stroke-miterlimit: 2; opacity: 1;"><g class="fills"><g><path class="js-fill" d="M0,431.12L36.83,406.45L73.67,384.99L110.5,365.48L147.33,341.46L257.83,274.06L294.67,254.36L331.5,230L368.33,207.6L405.17,187.01L442,164.14L552.5,99.43L589.33,85.14L626.17,88.9L663,79.51L699.83,71.56L736.67,59.73L773.5,50.74L810.33,44.13L847.17,41.15L884,39.47L847.17,41.2L810.33,44.23L773.5,50.88L736.67,59.94L699.83,71.84L663,79.71L626.17,90.19L589.33,86.15L552.5,100.57L515.67,122.83L442,165.16L405.17,188.34L368.33,210.2L331.5,230.56L294.67,255.14L257.83,276.83L184.17,319.74L147.33,342.97L110.5,366.12L73.67,386.18L36.83,409.71L0,431.98Z" style="fill: rgb(42, 120, 214); fill-opacity: 0.22; stroke-width: 0;"/></g></g><g class="errorbars"/><g class="lines"><path class="js-line" d="M0,431.12L36.83,406.45L73.67,384.99L110.5,365.48L147.33,341.46L257.83,274.06L294.67,254.36L331.5,230L368.33,207.6L405.17,187.01L442,164.14L552.5,99.43L589.33,85.14L626.17,88.9L663,79.51L699.83,71.56L736.67,59.73L773.5,50.74L810.33,44.13L847.17,41.15L884,39.47L847.17,41.2L810.33,44.23L773.5,50.88L736.67,59.94L699.83,71.84L663,79.71L626.17,90.19L589.33,86.15L552.5,100.57L515.67,122.83L442,165.16L405.17,188.34L368.33,210.2L331.5,230.56L294.67,255.14L257.83,276.83L184.17,319.74L147.33,342.97L110.5,366.12L73.67,386.18L36.83,409.71L0,431.98" style="vector-effect: none; fill: none; stroke: rgb(255, 161, 90); stroke-opacity: 1; stroke-width: 0px; opacity: 1;"/></g><g class="points"/><g class="text"/></g><g class="trace scatter trace33f568" style="stroke-miterlimit: 2; opacity: 1;"><g class="fills"/><g class="errorbars"/><g class="lines"><path class="js-line" d="M0,431.42L36.83,408.96L73.67,385.48L110.5,365.9L147.33,342.75L184.17,319.06L221,297.93L294.67,254.62L331.5,230.41L368.33,209.92L405.17,187.76L442,164.49L478.83,142.85L552.5,100.11L589.33,85.67L626.17,89.75L663,79.59L699.83,71.75L736.67,59.84L773.5,50.79L810.33,44.15L847.17,41.18L884,39.52" style="vector-effect: none; fill: none; stroke: rgb(42, 120, 214); stroke-opacity: 1; stroke-width: 2px; opacity: 1;"/></g><g class="points"/><g class="text"/></g><g class="trace scatter tracef15fbb" style="stroke-miterlimit: 2; opacity: 1;"><g class="fills"><g><path class="js-fill" d="M0,450.39L36.83,421.77L73.67,401.67L110.5,380.5L147.33,358.2L184.17,336.15L221,312.94L257.83,289.44L294.67,270.22L331.5,246.11L368.33,224.72L405.17,200.73L442,180.8L478.83,157.13L515.67,136.79L552.5,114.09L589.33,94.3L626.17,86.84L663,74.24L699.83,63.34L736.67,56.89L773.5,53.47L810.33,51.37L884,50.69L810.33,51.58L773.5,54.02L736.67,58.1L699.83,64.9L626.17,87.16L589.33,100.48L515.67,137.37L478.83,158.86L442,188.05L405.17,202.14L368.33,225.18L331.5,250L294.67,275.51L257.83,289.87L221,318.61L184.17,339.4L147.33,359.57L110.5,384.07L73.67,411.9L36.83,422.95L0,453Z" style="fill: rgb(28, 92, 171); fill-opacity: 0.22; stroke-width: 0;"/></g></g><g class="errorbars"/><g class="lines"><path class="js-line" d="M0,450.39L36.83,421.77L73.67,401.67L110.5,380.5L147.33,358.2L184.17,336.15L221,312.94L257.83,289.44L294.67,270.22L331.5,246.11L368.33,224.72L405.17,200.73L442,180.8L478.83,157.13L515.67,136.79L552.5,114.09L589.33,94.3L626.17,86.84L663,74.24L699.83,63.34L736.67,56.89L773.5,53.47L810.33,51.37L884,50.69L810.33,51.58L773.5,54.02L736.67,58.1L699.83,64.9L626.17,87.16L589.33,100.48L515.67,137.37L478.83,158.86L442,188.05L405.17,202.14L368.33,225.18L331.5,250L294.67,275.51L257.83,289.87L221,318.61L184.17,339.4L147.33,359.57L110.5,384.07L73.67,411.9L36.83,422.95L0,453" style="vector-effect: none; fill: none; stroke: rgb(255, 102, 146); stroke-opacity: 1; stroke-width: 0px; opacity: 1;"/></g><g class="points"/><g class="text"/></g><g class="trace scatter trace8cddfb" style="stroke-miterlimit: 2; opacity: 1;"><g class="fills"/><g class="errorbars"/><g class="lines"><path class="js-line" d="M0,450.54L36.83,422.08L73.67,403.28L110.5,382.85L147.33,358.86L184.17,337.39L221,314.28L257.83,289.67L294.67,274.76L331.5,248.92L368.33,224.96L405.17,200.97L442,184.39L478.83,157.89L515.67,137.01L552.5,114.53L589.33,97.87L663,76.02L699.83,64.43L736.67,57.07L773.5,53.77L810.33,51.49L847.17,51.01L884,50.75" style="vector-effect: none; fill: none; stroke: rgb(28, 92, 171); stroke-opacity: 1; stroke-width: 2px; opacity: 1;"/></g><g class="points"/><g class="text"/></g><g class="trace scatter trace738ea4" style="stroke-miterlimit: 2; opacity: 1;"><g class="fills"><g><path class="js-fill" d="M0,443.53L36.83,423.37L73.67,400.74L147.33,359.83L184.17,334.41L221,315.35L257.83,291.61L331.5,250.92L368.33,228.09L405.17,206.07L442,181.4L478.83,151.14L515.67,142.45L589.33,94.92L626.17,74.34L663,53.82L699.83,56.39L736.67,56.96L773.5,49.7L810.33,44.47L847.17,42.47L884,40.69L810.33,44.63L773.5,49.82L736.67,57.38L699.83,58.02L663,55.75L626.17,75.77L589.33,97.53L552.5,120.2L515.67,144.6L478.83,161.92L442,187.18L405.17,209.96L368.33,229.47L331.5,252.4L294.67,273.14L257.83,298.15L221,317.22L184.17,339.18L147.33,361.96L110.5,383.18L73.67,405.35L36.83,426.33L0,450.6Z" style="fill: rgb(247, 221, 161); fill-opacity: 0.22; stroke-width: 0;"/></g></g><g class="errorbars"/><g class="lines"><path class="js-line" d="M0,443.53L36.83,423.37L73.67,400.74L147.33,359.83L184.17,334.41L221,315.35L257.83,291.61L331.5,250.92L368.33,228.09L405.17,206.07L442,181.4L478.83,151.14L515.67,142.45L589.33,94.92L626.17,74.34L663,53.82L699.83,56.39L736.67,56.96L773.5,49.7L810.33,44.47L847.17,42.47L884,40.69L810.33,44.63L773.5,49.82L736.67,57.38L699.83,58.02L663,55.75L626.17,75.77L589.33,97.53L552.5,120.2L515.67,144.6L478.83,161.92L442,187.18L405.17,209.96L368.33,229.47L331.5,252.4L294.67,273.14L257.83,298.15L221,317.22L184.17,339.18L147.33,361.96L110.5,383.18L73.67,405.35L36.83,426.33L0,450.6" style="vector-effect: none; fill: none; stroke: rgb(255, 151, 255); stroke-opacity: 1; stroke-width: 0px; opacity: 1;"/></g><g class="points"/><g class="text"/></g><g class="trace scatter tracee9b4a1" style="stroke-miterlimit: 2; opacity: 1;"><g class="fills"/><g class="errorbars"/><g class="lines"><path class="js-line" d="M0,449.19L36.83,424.81L73.67,403.77L110.5,381.84L147.33,361.19L184.17,337.2L221,316.99L257.83,292.7L294.67,272.9L331.5,251.59L368.33,229.1L442,184.55L478.83,159.03L515.67,143.66L552.5,119.07L589.33,95.94L626.17,75.6L663,54.25L699.83,57.63L736.67,57.09L773.5,49.81L810.33,44.53L847.17,42.5L884,40.74" style="vector-effect: none; fill: none; stroke: rgb(247, 221, 161); stroke-opacity: 1; stroke-width: 2px; opacity: 1;"/></g><g class="points"/><g class="text"/></g><g class="trace scatter tracedf1f26" style="stroke-miterlimit: 2; opacity: 1;"><g class="fills"><g><path class="js-fill" d="M0,453.87L73.67,411.31L110.5,388.11L147.33,366.83L184.17,344.57L221,323.56L257.83,300.96L405.17,211.94L442,190.95L515.67,146.58L552.5,125.15L589.33,103.27L626.17,92.76L663,81.91L699.83,75.88L736.67,69.51L773.5,60.61L810.33,53.19L847.17,49.31L884,47.81L847.17,49.56L810.33,53.25L773.5,60.68L736.67,71.35L699.83,76.64L663,84.47L589.33,103.58L552.5,125.4L442,191.79L405.17,212.11L331.5,256.93L294.67,279.1L221,324.07L184.17,345.16L110.5,388.87L73.67,412L0,454.52Z" style="fill: rgb(238, 195, 105); fill-opacity: 0.22; stroke-width: 0;"/></g></g><g class="errorbars"/><g class="lines"><path class="js-line" d="M0,453.87L73.67,411.31L110.5,388.11L147.33,366.83L184.17,344.57L221,323.56L257.83,300.96L405.17,211.94L442,190.95L515.67,146.58L552.5,125.15L589.33,103.27L626.17,92.76L663,81.91L699.83,75.88L736.67,69.51L773.5,60.61L810.33,53.19L847.17,49.31L884,47.81L847.17,49.56L810.33,53.25L773.5,60.68L736.67,71.35L699.83,76.64L663,84.47L589.33,103.58L552.5,125.4L442,191.79L405.17,212.11L331.5,256.93L294.67,279.1L221,324.07L184.17,345.16L110.5,388.87L73.67,412L0,454.52" style="vector-effect: none; fill: none; stroke: rgb(99, 110, 250); stroke-opacity: 1; stroke-width: 0px; opacity: 1;"/></g><g class="points"/><g class="text"/></g><g class="trace scatter tracef97283" style="stroke-miterlimit: 2; opacity: 1;"><g class="fills"/><g class="errorbars"/><g class="lines"><path class="js-line" d="M0,454.18L73.67,411.83L110.5,388.66L221,323.81L257.83,301.18L405.17,211.97L442,191.12L515.67,147.01L552.5,125.3L589.33,103.46L626.17,93.72L663,84.26L699.83,75.95L736.67,71.25L773.5,60.65L810.33,53.22L847.17,49.4L884,47.91" style="vector-effect: none; fill: none; stroke: rgb(238, 195, 105); stroke-opacity: 1; stroke-width: 2px; opacity: 1;"/></g><g class="points"/><g class="text"/></g><g class="trace scatter trace2dd817" style="stroke-miterlimit: 2; opacity: 1;"><g class="fills"><g><path class="js-fill" d="M0,452.27L36.83,433.09L73.67,408.41L110.5,385.55L147.33,363.62L184.17,342.24L221,319.88L294.67,277.12L331.5,253.38L368.33,231.47L405.17,210.96L442,189.58L478.83,166.54L552.5,121.31L589.33,101.24L626.17,80.7L663,74.62L699.83,92.22L736.67,85.64L773.5,81.53L810.33,75.6L847.17,72.84L884,73.32L884,76.14L847.17,73.7L810.33,75.78L773.5,81.82L736.67,85.9L699.83,93.57L663,80.17L626.17,83L589.33,108.18L552.5,129.03L515.67,145.68L478.83,172.44L442,191.43L405.17,217.01L368.33,233L331.5,255.1L294.67,279.06L257.83,304.75L221,322.27L184.17,346.06L147.33,366.49L110.5,391.94L73.67,415.41L36.83,436.31L0,458.82Z" style="fill: rgb(224, 164, 31); fill-opacity: 0.22; stroke-width: 0;"/></g></g><g class="errorbars"/><g class="lines"><path class="js-line" d="M0,452.27L36.83,433.09L73.67,408.41L110.5,385.55L147.33,363.62L184.17,342.24L221,319.88L294.67,277.12L331.5,253.38L368.33,231.47L405.17,210.96L442,189.58L478.83,166.54L552.5,121.31L589.33,101.24L626.17,80.7L663,74.62L699.83,92.22L736.67,85.64L773.5,81.53L810.33,75.6L847.17,72.84L884,73.32L884,76.14L847.17,73.7L810.33,75.78L773.5,81.82L736.67,85.9L699.83,93.57L663,80.17L626.17,83L589.33,108.18L552.5,129.03L515.67,145.68L478.83,172.44L442,191.43L405.17,217.01L368.33,233L331.5,255.1L294.67,279.06L257.83,304.75L221,322.27L184.17,346.06L147.33,366.49L110.5,391.94L73.67,415.41L36.83,436.31L0,458.82" style="vector-effect: none; fill: none; stroke: rgb(0, 204, 150); stroke-opacity: 1; stroke-width: 0px; opacity: 1;"/></g><g class="points"/><g class="text"/></g><g class="trace scatter tracec23df7" style="stroke-miterlimit: 2; opacity: 1;"><g class="fills"/><g class="errorbars"/><g class="lines"><path class="js-line" d="M0,458.54L36.83,435.89L73.67,409.78L147.33,364.48L184.17,342.94L257.83,299.07L294.67,277.97L331.5,253.95L368.33,232.02L405.17,212.19L442,190.11L552.5,122.18L589.33,102.34L626.17,81.38L663,79.4L699.83,92.67L736.67,85.81L773.5,81.75L810.33,75.72L847.17,73.49L884,75.16" style="vector-effect: none; fill: none; stroke: rgb(224, 164, 31); stroke-opacity: 1; stroke-width: 2px; opacity: 1;"/></g><g class="points"/><g class="text"/></g><g class="trace scatter trace694718" style="stroke-miterlimit: 2; opacity: 1;"><g class="fills"><g><path class="js-fill" d="M0,461.53L36.83,441.05L73.67,421.65L110.5,396.55L147.33,378.41L184.17,353.28L221,331.98L257.83,308.93L294.67,289.65L331.5,268.01L368.33,243.24L405.17,223.73L442,201.22L478.83,176.24L515.67,157.49L552.5,141.75L589.33,134.04L626.17,121.75L663,116.85L699.83,110.02L736.67,104.48L773.5,99.84L810.33,97.08L884,95.65L884,95.72L847.17,96.78L810.33,98.07L773.5,100.89L736.67,105.04L699.83,110.86L626.17,127.13L589.33,141.06L552.5,146.33L515.67,173.79L478.83,197.28L442,216.66L405.17,235.2L368.33,246.2L331.5,272.68L294.67,306.73L257.83,315.64L221,335.17L184.17,371.82L147.33,391.65L110.5,400.18L73.67,430.39L36.83,444.32L0,468.12Z" style="fill: rgb(201, 133, 0); fill-opacity: 0.22; stroke-width: 0;"/></g></g><g class="errorbars"/><g class="lines"><path class="js-line" d="M0,461.53L36.83,441.05L73.67,421.65L110.5,396.55L147.33,378.41L184.17,353.28L221,331.98L257.83,308.93L294.67,289.65L331.5,268.01L368.33,243.24L405.17,223.73L442,201.22L478.83,176.24L515.67,157.49L552.5,141.75L589.33,134.04L626.17,121.75L663,116.85L699.83,110.02L736.67,104.48L773.5,99.84L810.33,97.08L884,95.65L884,95.72L847.17,96.78L810.33,98.07L773.5,100.89L736.67,105.04L699.83,110.86L626.17,127.13L589.33,141.06L552.5,146.33L515.67,173.79L478.83,197.28L442,216.66L405.17,235.2L368.33,246.2L331.5,272.68L294.67,306.73L257.83,315.64L221,335.17L184.17,371.82L147.33,391.65L110.5,400.18L73.67,430.39L36.83,444.32L0,468.12" style="vector-effect: none; fill: none; stroke: rgb(255, 161, 90); stroke-opacity: 1; stroke-width: 0px; opacity: 1;"/></g><g class="points"/><g class="text"/></g><g class="trace scatter traceaf4b89" style="stroke-miterlimit: 2; opacity: 1;"><g class="fills"/><g class="errorbars"/><g class="lines"><path class="js-line" d="M0,465.79L36.83,443.83L73.67,422.9L110.5,399.66L147.33,380.75L184.17,355.99L221,334.15L331.5,268.26L368.33,245.25L405.17,224.9L442,202.62L478.83,178.97L515.67,159.64L552.5,141.94L589.33,134.72L626.17,122.41L663,118.83L699.83,110.29L736.67,104.88L773.5,100.09L810.33,97.2L884,95.68" style="vector-effect: none; fill: none; stroke: rgb(201, 133, 0); stroke-opacity: 1; stroke-width: 2px; opacity: 1;"/></g><g class="points"/><g class="text"/></g><g class="trace scatter trace7b3da9" style="stroke-miterlimit: 2; opacity: 1;"><g class="fills"><g><path class="js-fill" d="M0,463.86L36.83,441.17L73.67,420.68L110.5,398.02L147.33,377.2L221,332.85L257.83,310.11L294.67,288.27L331.5,265.48L368.33,245L405.17,222.64L442,201.95L478.83,178.15L515.67,157.97L552.5,145.15L589.33,135.07L626.17,127.79L663,127.14L699.83,122.91L736.67,115.54L773.5,111.87L847.17,109.21L884,108.96L884,109.19L847.17,109.64L773.5,112.19L736.67,116.34L699.83,123.99L663,128.68L626.17,132.64L589.33,138.07L552.5,145.73L515.67,163.42L478.83,181.18L442,205.66L368.33,248.76L331.5,266.57L294.67,292.11L257.83,311.72L221,337.59L184.17,359.47L147.33,382.82L110.5,399.74L73.67,423.81L36.83,442.28L0,465.11Z" style="fill: rgb(143, 94, 0); fill-opacity: 0.22; stroke-width: 0;"/></g></g><g class="errorbars"/><g class="lines"><path class="js-line" d="M0,463.86L36.83,441.17L73.67,420.68L110.5,398.02L147.33,377.2L221,332.85L257.83,310.11L294.67,288.27L331.5,265.48L368.33,245L405.17,222.64L442,201.95L478.83,178.15L515.67,157.97L552.5,145.15L589.33,135.07L626.17,127.79L663,127.14L699.83,122.91L736.67,115.54L773.5,111.87L847.17,109.21L884,108.96L884,109.19L847.17,109.64L773.5,112.19L736.67,116.34L699.83,123.99L663,128.68L626.17,132.64L589.33,138.07L552.5,145.73L515.67,163.42L478.83,181.18L442,205.66L368.33,248.76L331.5,266.57L294.67,292.11L257.83,311.72L221,337.59L184.17,359.47L147.33,382.82L110.5,399.74L73.67,423.81L36.83,442.28L0,465.11" style="vector-effect: none; fill: none; stroke: rgb(255, 102, 146); stroke-opacity: 1; stroke-width: 0px; opacity: 1;"/></g><g class="points"/><g class="text"/></g><g class="trace scatter traceb7584f" style="stroke-miterlimit: 2; opacity: 1;"><g class="fills"/><g class="errorbars"/><g class="lines"><path class="js-line" d="M0,464.13L36.83,441.88L73.67,420.98L110.5,398.44L147.33,378.91L184.17,356.6L221,336.76L257.83,310.91L294.67,288.83L331.5,266.32L368.33,245.18L405.17,223.4L442,204.3L478.83,178.77L515.67,161.07L552.5,145.45L589.33,136.57L626.17,129.74L663,128.21L699.83,123.94L736.67,116.07L773.5,112.04L810.33,110.66L847.17,109.46L884,109.07" style="vector-effect: none; fill: none; stroke: rgb(143, 94, 0); stroke-opacity: 1; stroke-width: 2px; opacity: 1;"/></g><g class="points"/><g class="text"/></g><g class="trace scatter trace63a4f5" style="stroke-miterlimit: 2; opacity: 1;"><g class="fills"><g><path class="js-fill" d="M0,466.23L36.83,443.7L73.67,416.95L110.5,396.37L147.33,374.28L184.17,356.19L221,330.36L257.83,307.96L294.67,287.02L331.5,266.87L368.33,244.31L442,201.42L478.83,175.79L515.67,156.83L552.5,131.81L589.33,114.15L626.17,95.15L663,93.28L699.83,83.15L736.67,76.67L773.5,68.81L810.33,61.23L847.17,57.32L884,55.07L847.17,57.93L810.33,61.88L736.67,77.19L699.83,83.31L663,93.8L626.17,95.93L589.33,116.43L552.5,132.73L515.67,159.78L478.83,176.68L442,203.55L405.17,223.66L368.33,245.41L331.5,268.35L294.67,291.17L257.83,312.51L221,330.75L184.17,362.35L147.33,380.62L110.5,402.27L73.67,424.42L36.83,451.59L0,469.65Z" style="fill: rgb(246, 191, 162); fill-opacity: 0.22; stroke-width: 0;"/></g></g><g class="errorbars"/><g class="lines"><path class="js-line" d="M0,466.23L36.83,443.7L73.67,416.95L110.5,396.37L147.33,374.28L184.17,356.19L221,330.36L257.83,307.96L294.67,287.02L331.5,266.87L368.33,244.31L442,201.42L478.83,175.79L515.67,156.83L552.5,131.81L589.33,114.15L626.17,95.15L663,93.28L699.83,83.15L736.67,76.67L773.5,68.81L810.33,61.23L847.17,57.32L884,55.07L847.17,57.93L810.33,61.88L736.67,77.19L699.83,83.31L663,93.8L626.17,95.93L589.33,116.43L552.5,132.73L515.67,159.78L478.83,176.68L442,203.55L405.17,223.66L368.33,245.41L331.5,268.35L294.67,291.17L257.83,312.51L221,330.75L184.17,362.35L147.33,380.62L110.5,402.27L73.67,424.42L36.83,451.59L0,469.65" style="vector-effect: none; fill: none; stroke: rgb(255, 151, 255); stroke-opacity: 1; stroke-width: 0px; opacity: 1;"/></g><g class="points"/><g class="text"/></g><g class="trace scatter tracefafaa0" style="stroke-miterlimit: 2; opacity: 1;"><g class="fills"/><g class="errorbars"/><g class="lines"><path class="js-line" d="M0,466.73L36.83,444.26L73.67,417.1L110.5,399.58L147.33,375.59L184.17,356.75L221,330.54L257.83,308.15L294.67,288.5L331.5,267.06L368.33,244.74L442,201.99L478.83,175.89L515.67,157.48L552.5,132.13L589.33,114.33L626.17,95.46L663,93.68L699.83,83.18L736.67,76.99L773.5,68.95L810.33,61.7L847.17,57.43L884,55.17" style="vector-effect: none; fill: none; stroke: rgb(246, 191, 162); stroke-opacity: 1; stroke-width: 2px; opacity: 1;"/></g><g class="points"/><g class="text"/></g><g class="trace scatter tracefcb367" style="stroke-miterlimit: 2; opacity: 1;"><g class="fills"><g><path class="js-fill" d="M0,460.58L36.83,441.7L73.67,419.77L147.33,376.88L184.17,354.58L221,332.99L257.83,307.13L294.67,289.25L331.5,266.62L442,201.18L478.83,178.99L515.67,153.35L552.5,135.36L589.33,113.59L626.17,101.57L663,90.43L699.83,86.13L736.67,76.65L773.5,69.36L810.33,62.17L847.17,59.1L884,57.08L847.17,59.38L810.33,62.72L773.5,70.7L736.67,79.92L699.83,87.47L663,94.06L626.17,103.44L589.33,118.52L552.5,138.6L515.67,160.11L478.83,181.92L442,208.8L405.17,226.04L368.33,249.36L331.5,268.97L294.67,292.46L221,335.87L184.17,358.52L110.5,403.07L73.67,423.81L0,467.71Z" style="fill: rgb(227, 115, 68); fill-opacity: 0.22; stroke-width: 0;"/></g></g><g class="errorbars"/><g class="lines"><path class="js-line" d="M0,460.58L36.83,441.7L73.67,419.77L147.33,376.88L184.17,354.58L221,332.99L257.83,307.13L294.67,289.25L331.5,266.62L442,201.18L478.83,178.99L515.67,153.35L552.5,135.36L589.33,113.59L626.17,101.57L663,90.43L699.83,86.13L736.67,76.65L773.5,69.36L810.33,62.17L847.17,59.1L884,57.08L847.17,59.38L810.33,62.72L773.5,70.7L736.67,79.92L699.83,87.47L663,94.06L626.17,103.44L589.33,118.52L552.5,138.6L515.67,160.11L478.83,181.92L442,208.8L405.17,226.04L368.33,249.36L331.5,268.97L294.67,292.46L221,335.87L184.17,358.52L110.5,403.07L73.67,423.81L0,467.71" style="vector-effect: none; fill: none; stroke: rgb(99, 110, 250); stroke-opacity: 1; stroke-width: 0px; opacity: 1;"/></g><g class="points"/><g class="text"/></g><g class="trace scatter trace83dc3b" style="stroke-miterlimit: 2; opacity: 1;"><g class="fills"/><g class="errorbars"/><g class="lines"><path class="js-line" d="M0,465.12L36.83,445.39L73.67,420.34L110.5,401.86L147.33,377.5L184.17,357.88L221,333.51L257.83,308.26L294.67,291.47L331.5,266.87L368.33,247.22L405.17,223.59L442,204.09L478.83,181.15L515.67,154.03L552.5,138.32L589.33,116.98L626.17,102.26L663,92.87L699.83,86.32L736.67,77.39L810.33,62.35L847.17,59.25L884,57.14" style="vector-effect: none; fill: none; stroke: rgb(227, 115, 68); stroke-opacity: 1; stroke-width: 2px; opacity: 1;"/></g><g class="points"/><g class="text"/></g><g class="trace scatter trace4c70d8" style="stroke-miterlimit: 2; opacity: 1;"><g class="fills"><g><path class="js-fill" d="M0,459.93L36.83,437.04L73.67,416.04L405.17,218.12L442,195.08L515.67,152.58L552.5,128.93L626.17,100.37L663,91.76L699.83,82.32L736.67,83.12L773.5,80.89L810.33,73.31L847.17,69.29L884,67.43L884,67.85L847.17,69.71L810.33,73.75L773.5,81.46L736.67,84.65L699.83,97.39L663,95.69L626.17,103.38L552.5,129.76L515.67,158.3L442,200.56L405.17,223.31L368.33,240.88L331.5,267.87L294.67,289.07L257.83,306.32L221,333.87L184.17,355.2L147.33,372.22L110.5,399.55L73.67,421.63L36.83,442.33L0,464.9Z" style="fill: rgb(217, 89, 38); fill-opacity: 0.22; stroke-width: 0;"/></g></g><g class="errorbars"/><g class="lines"><path class="js-line" d="M0,459.93L36.83,437.04L73.67,416.04L405.17,218.12L442,195.08L515.67,152.58L552.5,128.93L626.17,100.37L663,91.76L699.83,82.32L736.67,83.12L773.5,80.89L810.33,73.31L847.17,69.29L884,67.43L884,67.85L847.17,69.71L810.33,73.75L773.5,81.46L736.67,84.65L699.83,97.39L663,95.69L626.17,103.38L552.5,129.76L515.67,158.3L442,200.56L405.17,223.31L368.33,240.88L331.5,267.87L294.67,289.07L257.83,306.32L221,333.87L184.17,355.2L147.33,372.22L110.5,399.55L73.67,421.63L36.83,442.33L0,464.9" style="vector-effect: none; fill: none; stroke: rgb(0, 204, 150); stroke-opacity: 1; stroke-width: 0px; opacity: 1;"/></g><g class="points"/><g class="text"/></g><g class="trace scatter trace1c3ff6" style="stroke-miterlimit: 2; opacity: 1;"><g class="fills"/><g class="errorbars"/><g class="lines"><path class="js-line" d="M0,464.72L36.83,437.4L73.67,416.61L110.5,396.69L147.33,371.73L221,328.48L257.83,305.95L331.5,262.53L368.33,240.37L478.83,174.08L515.67,155.75L552.5,129.29L589.33,115.13L626.17,102.72L663,94.82L699.83,88.38L736.67,83.43L773.5,80.98L810.33,73.61L847.17,69.46L884,67.6" style="vector-effect: none; fill: none; stroke: rgb(217, 89, 38); stroke-opacity: 1; stroke-width: 2px; opacity: 1;"/></g><g class="points"/><g class="text"/></g><g class="trace scatter traceb797bb" style="stroke-miterlimit: 2; opacity: 1;"><g class="fills"><g><path class="js-fill" d="M0,462.69L36.83,441.24L73.67,417.25L110.5,399.13L147.33,375.47L184.17,355.48L221,332.97L257.83,311.3L294.67,287.11L368.33,243.96L405.17,222.98L478.83,177.02L515.67,156.42L589.33,127.13L626.17,119.58L663,116.32L699.83,110.13L736.67,101.44L773.5,97.1L810.33,94.93L847.17,94.93L884,93.91L847.17,95.16L810.33,95.22L773.5,97.32L736.67,101.7L699.83,110.62L663,117.59L589.33,131.46L552.5,146.92L515.67,157.28L478.83,180.2L442,201.34L405.17,227.9L368.33,244.86L331.5,271.34L294.67,289.05L257.83,314.13L221,338.2L184.17,358.12L147.33,377.92L110.5,400.43L73.67,421.66L36.83,445.97L0,464.37Z" style="fill: rgb(201, 73, 26); fill-opacity: 0.22; stroke-width: 0;"/></g></g><g class="errorbars"/><g class="lines"><path class="js-line" d="M0,462.69L36.83,441.24L73.67,417.25L110.5,399.13L147.33,375.47L184.17,355.48L221,332.97L257.83,311.3L294.67,287.11L368.33,243.96L405.17,222.98L478.83,177.02L515.67,156.42L589.33,127.13L626.17,119.58L663,116.32L699.83,110.13L736.67,101.44L773.5,97.1L810.33,94.93L847.17,94.93L884,93.91L847.17,95.16L810.33,95.22L773.5,97.32L736.67,101.7L699.83,110.62L663,117.59L589.33,131.46L552.5,146.92L515.67,157.28L478.83,180.2L442,201.34L405.17,227.9L368.33,244.86L331.5,271.34L294.67,289.05L257.83,314.13L221,338.2L184.17,358.12L147.33,377.92L110.5,400.43L73.67,421.66L36.83,445.97L0,464.37" style="vector-effect: none; fill: none; stroke: rgb(255, 161, 90); stroke-opacity: 1; stroke-width: 0px; opacity: 1;"/></g><g class="points"/><g class="text"/></g><g class="trace scatter trace333fc2" style="stroke-miterlimit: 2; opacity: 1;"><g class="fills"/><g class="errorbars"/><g class="lines"><path class="js-line" d="M0,463.69L36.83,443.29L73.67,420.05L110.5,399.24L147.33,376.21L184.17,355.86L221,333.64L257.83,311.87L294.67,288.5L331.5,267.35L368.33,244.35L405.17,223.63L442,199.93L478.83,179.21L515.67,156.81L552.5,145.2L589.33,130.43L626.17,122.87L663,116.6L699.83,110.32L736.67,101.65L773.5,97.13L810.33,95.01L847.17,94.99L884,94.09" style="vector-effect: none; fill: none; stroke: rgb(201, 73, 26); stroke-opacity: 1; stroke-width: 2px; opacity: 1;"/></g><g class="points"/><g class="text"/></g><g class="trace scatter trace594b9d" style="stroke-miterlimit: 2; opacity: 1;"><g class="fills"><g><path class="js-fill" d="M0,460.67L73.67,418.05L110.5,393.68L147.33,374.91L184.17,352.75L221,341.12L257.83,312.09L294.67,287.98L331.5,265.78L368.33,242.95L405.17,222.67L515.67,174.43L552.5,183.65L626.17,160.45L663,155.98L699.83,149.48L736.67,145.13L773.5,143.19L847.17,140.82L884,141.2L847.17,140.87L773.5,143.28L736.67,145.68L699.83,150.27L663,156.89L626.17,166.34L589.33,172.78L552.5,189.34L515.67,175.33L405.17,232.47L368.33,257.86L331.5,280.07L294.67,299.07L257.83,323.25L221,345.17L184.17,357.81L147.33,382.16L110.5,398.71L73.67,418.65L36.83,440.54L0,466.56Z" style="fill: rgb(156, 54, 15); fill-opacity: 0.22; stroke-width: 0;"/></g></g><g class="errorbars"/><g class="lines"><path class="js-line" d="M0,460.67L73.67,418.05L110.5,393.68L147.33,374.91L184.17,352.75L221,341.12L257.83,312.09L294.67,287.98L331.5,265.78L368.33,242.95L405.17,222.67L515.67,174.43L552.5,183.65L626.17,160.45L663,155.98L699.83,149.48L736.67,145.13L773.5,143.19L847.17,140.82L884,141.2L847.17,140.87L773.5,143.28L736.67,145.68L699.83,150.27L663,156.89L626.17,166.34L589.33,172.78L552.5,189.34L515.67,175.33L405.17,232.47L368.33,257.86L331.5,280.07L294.67,299.07L257.83,323.25L221,345.17L184.17,357.81L147.33,382.16L110.5,398.71L73.67,418.65L36.83,440.54L0,466.56" style="vector-effect: none; fill: none; stroke: rgb(255, 102, 146); stroke-opacity: 1; stroke-width: 0px; opacity: 1;"/></g><g class="points"/><g class="text"/></g><g class="trace scatter trace86db90" style="stroke-miterlimit: 2; opacity: 1;"><g class="fills"/><g class="errorbars"/><g class="lines"><path class="js-line" d="M0,465.22L36.83,440.09L73.67,418.2L110.5,394.36L147.33,377.45L184.17,353.2L221,343.56L257.83,317.81L294.67,296.53L331.5,272.46L368.33,252.22L405.17,227.95L515.67,175.09L552.5,189L589.33,172.21L626.17,163.24L663,156.13L699.83,149.95L736.67,145.44L773.5,143.24L847.17,140.85L884,141.19" style="vector-effect: none; fill: none; stroke: rgb(156, 54, 15); stroke-opacity: 1; stroke-width: 2px; opacity: 1;"/></g><g class="points"/><g class="text"/></g><g class="trace scatter traceecc1e2" style="stroke-miterlimit: 2; opacity: 1;"><g class="fills"><g><path class="js-fill" d="M0,430.73L36.83,410L73.67,387.8L110.5,371.76L147.33,351.76L184.17,334.53L221,318.68L257.83,340.92L294.67,326.21L331.5,320.87L368.33,318.67L405.17,320.4L442,300.64L478.83,294.99L515.67,299.09L552.5,303.02L589.33,294.04L626.17,289.53L663,290.25L736.67,282.41L773.5,280.21L810.33,278.81L847.17,278.29L884,278L810.33,278.81L773.5,280.47L736.67,282.61L699.83,286.1L663,290.55L626.17,290.26L552.5,304.34L515.67,301.06L478.83,295.72L442,301.14L405.17,321.52L368.33,318.87L331.5,321.17L294.67,326.42L257.83,342.38L221,318.8L184.17,334.7L147.33,352.06L110.5,371.94L73.67,387.95L36.83,410.34L0,430.92Z" style="fill: rgb(196, 238, 219); fill-opacity: 0.22; stroke-width: 0;"/></g></g><g class="errorbars"/><g class="lines"><path class="js-line" d="M0,430.73L36.83,410L73.67,387.8L110.5,371.76L147.33,351.76L184.17,334.53L221,318.68L257.83,340.92L294.67,326.21L331.5,320.87L368.33,318.67L405.17,320.4L442,300.64L478.83,294.99L515.67,299.09L552.5,303.02L589.33,294.04L626.17,289.53L663,290.25L736.67,282.41L773.5,280.21L810.33,278.81L847.17,278.29L884,278L810.33,278.81L773.5,280.47L736.67,282.61L699.83,286.1L663,290.55L626.17,290.26L552.5,304.34L515.67,301.06L478.83,295.72L442,301.14L405.17,321.52L368.33,318.87L331.5,321.17L294.67,326.42L257.83,342.38L221,318.8L184.17,334.7L147.33,352.06L110.5,371.94L73.67,387.95L36.83,410.34L0,430.92" style="vector-effect: none; fill: none; stroke: rgb(255, 151, 255); stroke-opacity: 1; stroke-width: 0px; opacity: 1;"/></g><g class="points"/><g class="text"/></g><g class="trace scatter trace7f9d77" style="stroke-miterlimit: 2; opacity: 1;"><g class="fills"/><g class="errorbars"/><g class="lines"><path class="js-line" d="M0,430.79L36.83,410.24L73.67,387.86L110.5,371.87L147.33,351.97L184.17,334.61L221,318.69L257.83,341.24L294.67,326.32L331.5,320.97L368.33,318.72L405.17,321.16L442,301.02L478.83,295.55L515.67,300.06L552.5,303.75L589.33,294.94L626.17,290.14L663,290.46L699.83,286.03L736.67,282.47L810.33,278.81L847.17,278.29L884,278" style="vector-effect: none; fill: none; stroke: rgb(196, 238, 219); stroke-opacity: 1; stroke-width: 2px; opacity: 1;"/></g><g class="points"/><g class="text"/></g><g class="trace scatter trace3c1cd1" style="stroke-miterlimit: 2; opacity: 1;"><g class="fills"><g><path class="js-fill" d="M0,430.49L36.83,410.59L73.67,388.52L110.5,372.68L147.33,353.11L184.17,334.57L221,318.74L257.83,343.12L294.67,326.72L331.5,320.79L368.33,318.65L405.17,320.96L442,308.28L478.83,305.33L515.67,308.36L552.5,304.85L589.33,302.37L626.17,297.76L663,294.25L736.67,289.23L773.5,287.94L847.17,286.6L884,286.42L810.33,287.07L773.5,287.94L699.83,292.89L663,296.53L626.17,297.96L589.33,302.85L552.5,307.36L515.67,313.55L478.83,307.84L442,309.47L405.17,321.43L368.33,318.9L331.5,321.1L294.67,326.96L257.83,343.31L221,319.12L184.17,334.79L147.33,353.26L110.5,372.84L73.67,388.69L36.83,410.77L0,430.75Z" style="fill: rgb(78, 196, 155); fill-opacity: 0.22; stroke-width: 0;"/></g></g><g class="errorbars"/><g class="lines"><path class="js-line" d="M0,430.49L36.83,410.59L73.67,388.52L110.5,372.68L147.33,353.11L184.17,334.57L221,318.74L257.83,343.12L294.67,326.72L331.5,320.79L368.33,318.65L405.17,320.96L442,308.28L478.83,305.33L515.67,308.36L552.5,304.85L589.33,302.37L626.17,297.76L663,294.25L736.67,289.23L773.5,287.94L847.17,286.6L884,286.42L810.33,287.07L773.5,287.94L699.83,292.89L663,296.53L626.17,297.96L589.33,302.85L552.5,307.36L515.67,313.55L478.83,307.84L442,309.47L405.17,321.43L368.33,318.9L331.5,321.1L294.67,326.96L257.83,343.31L221,319.12L184.17,334.79L147.33,353.26L110.5,372.84L73.67,388.69L36.83,410.77L0,430.75" style="vector-effect: none; fill: none; stroke: rgb(99, 110, 250); stroke-opacity: 1; stroke-width: 0px; opacity: 1;"/></g><g class="points"/><g class="text"/></g><g class="trace scatter trace18dde0" style="stroke-miterlimit: 2; opacity: 1;"><g class="fills"/><g class="errorbars"/><g class="lines"><path class="js-line" d="M0,430.56L36.83,410.71L73.67,388.62L110.5,372.72L147.33,353.17L184.17,334.66L221,318.89L257.83,343.2L294.67,326.88L331.5,320.87L368.33,318.77L405.17,321.11L442,308.65L478.83,306.67L515.67,311.83L552.5,306.73L589.33,302.55L626.17,297.88L663,296.06L736.67,289.9L773.5,287.94L847.17,286.6L884,286.42" style="vector-effect: none; fill: none; stroke: rgb(78, 196, 155); stroke-opacity: 1; stroke-width: 2px; opacity: 1;"/></g><g class="points"/><g class="text"/></g><g class="trace scatter traced9fb4c" style="stroke-miterlimit: 2; opacity: 1;"><g class="fills"><g><path class="js-fill" d="M0,430.69L36.83,411.09L73.67,387.93L110.5,371.87L147.33,352.54L184.17,334.67L221,318.7L257.83,320.91L294.67,324.87L331.5,320.87L368.33,322.61L405.17,296.44L442,294.8L515.67,293.34L552.5,293.1L589.33,298.52L626.17,298.73L810.33,298.98L847.17,298.79L884,298.82L589.33,299.22L552.5,293.27L478.83,293.94L442,294.98L405.17,296.58L368.33,344.51L331.5,321.06L294.67,325.02L221,318.86L184.17,334.86L147.33,352.69L110.5,372.12L73.67,388.2L36.83,411.46L0,430.76Z" style="fill: rgb(25, 158, 112); fill-opacity: 0.22; stroke-width: 0;"/></g></g><g class="errorbars"/><g class="lines"><path class="js-line" d="M0,430.69L36.83,411.09L73.67,387.93L110.5,371.87L147.33,352.54L184.17,334.67L221,318.7L257.83,320.91L294.67,324.87L331.5,320.87L368.33,322.61L405.17,296.44L442,294.8L515.67,293.34L552.5,293.1L589.33,298.52L626.17,298.73L810.33,298.98L847.17,298.79L884,298.82L589.33,299.22L552.5,293.27L478.83,293.94L442,294.98L405.17,296.58L368.33,344.51L331.5,321.06L294.67,325.02L221,318.86L184.17,334.86L147.33,352.69L110.5,372.12L73.67,388.2L36.83,411.46L0,430.76" style="vector-effect: none; fill: none; stroke: rgb(0, 204, 150); stroke-opacity: 1; stroke-width: 0px; opacity: 1;"/></g><g class="points"/><g class="text"/></g><g class="trace scatter trace927226" style="stroke-miterlimit: 2; opacity: 1;"><g class="fills"/><g class="errorbars"/><g class="lines"><path class="js-line" d="M0,430.72L36.83,411.31L73.67,388.05L110.5,372.01L147.33,352.64L184.17,334.75L221,318.74L257.83,321.15L294.67,324.9L331.5,320.97L368.33,336.42L405.17,296.47L442,294.84L515.67,293.4L552.5,293.16L589.33,298.62L626.17,298.88L810.33,298.98L847.17,298.79L884,298.82" style="vector-effect: none; fill: none; stroke: rgb(25, 158, 112); stroke-opacity: 1; stroke-width: 2px; opacity: 1;"/></g><g class="points"/><g class="text"/></g><g class="trace scatter trace653f78" style="stroke-miterlimit: 2; opacity: 1;"><g class="fills"><g><path class="js-fill" d="M0,430.77L36.83,410.41L73.67,388.29L110.5,372.09L147.33,352.42L184.17,334.71L221,318.73L257.83,329.5L294.67,325.74L331.5,320.84L368.33,318.7L405.17,333.46L442,327.9L478.83,325.4L515.67,316.02L552.5,293.05L589.33,310.18L626.17,304.6L663,302.03L699.83,300.39L736.67,299.85L847.17,298.76L884,298.56L773.5,299.31L736.67,300.35L699.83,301.23L663,303.8L626.17,305.97L589.33,310.5L552.5,316.09L515.67,319.25L478.83,325.83L442,328.55L405.17,333.88L368.33,318.89L331.5,321.02L294.67,326.11L257.83,336.51L221,319.07L147.33,352.64L110.5,372.25L73.67,388.7L36.83,411.02L0,430.94Z" style="fill: rgb(21, 138, 96); fill-opacity: 0.22; stroke-width: 0;"/></g></g><g class="errorbars"/><g class="lines"><path class="js-line" d="M0,430.77L36.83,410.41L73.67,388.29L110.5,372.09L147.33,352.42L184.17,334.71L221,318.73L257.83,329.5L294.67,325.74L331.5,320.84L368.33,318.7L405.17,333.46L442,327.9L478.83,325.4L515.67,316.02L552.5,293.05L589.33,310.18L626.17,304.6L663,302.03L699.83,300.39L736.67,299.85L847.17,298.76L884,298.56L773.5,299.31L736.67,300.35L699.83,301.23L663,303.8L626.17,305.97L589.33,310.5L552.5,316.09L515.67,319.25L478.83,325.83L442,328.55L405.17,333.88L368.33,318.89L331.5,321.02L294.67,326.11L257.83,336.51L221,319.07L147.33,352.64L110.5,372.25L73.67,388.7L36.83,411.02L0,430.94" style="vector-effect: none; fill: none; stroke: rgb(255, 161, 90); stroke-opacity: 1; stroke-width: 0px; opacity: 1;"/></g><g class="points"/><g class="text"/></g><g class="trace scatter trace970d0c" style="stroke-miterlimit: 2; opacity: 1;"><g class="fills"/><g class="errorbars"/><g class="lines"><path class="js-line" d="M0,430.83L36.83,410.69L73.67,388.43L110.5,372.14L147.33,352.5L184.17,334.83L221,318.86L257.83,334.43L294.67,325.95L331.5,320.97L368.33,318.79L405.17,333.78L442,328.14L478.83,325.62L515.67,317.33L552.5,301.67L589.33,310.38L626.17,304.91L663,302.58L699.83,300.81L736.67,300.21L810.33,298.87L847.17,298.76L884,298.56" style="vector-effect: none; fill: none; stroke: rgb(21, 138, 96); stroke-opacity: 1; stroke-width: 2px; opacity: 1;"/></g><g class="points"/><g class="text"/></g><g class="trace scatter trace2bb191" style="stroke-miterlimit: 2; opacity: 1;"><g class="fills"><g><path class="js-fill" d="M0,430.76L36.83,421.47L73.67,399.09L110.5,380L147.33,359.66L184.17,340.92L221,325.11L257.83,318.13L294.67,315.7L368.33,316.23L405.17,315.31L478.83,314.19L515.67,314.03L552.5,314.06L589.33,318.7L663,319.8L699.83,319.79L847.17,320.32L626.17,319.59L589.33,318.81L552.5,314.22L515.67,314.19L405.17,315.38L368.33,316.4L294.67,315.96L257.83,318.3L221,325.15L184.17,341.04L147.33,359.76L110.5,380.13L73.67,399.28L36.83,421.56L0,430.92Z" style="fill: rgb(11, 79, 56); fill-opacity: 0.22; stroke-width: 0;"/></g></g><g class="errorbars"/><g class="lines"><path class="js-line" d="M0,430.76L36.83,421.47L73.67,399.09L110.5,380L147.33,359.66L184.17,340.92L221,325.11L257.83,318.13L294.67,315.7L368.33,316.23L405.17,315.31L478.83,314.19L515.67,314.03L552.5,314.06L589.33,318.7L663,319.8L699.83,319.79L847.17,320.32L626.17,319.59L589.33,318.81L552.5,314.22L515.67,314.19L405.17,315.38L368.33,316.4L294.67,315.96L257.83,318.3L221,325.15L184.17,341.04L147.33,359.76L110.5,380.13L73.67,399.28L36.83,421.56L0,430.92" style="vector-effect: none; fill: none; stroke: rgb(255, 102, 146); stroke-opacity: 1; stroke-width: 0px; opacity: 1;"/></g><g class="points"/><g class="text"/></g><g class="trace scatter trace5682b0" style="stroke-miterlimit: 2; opacity: 1;"><g class="fills"/><g class="errorbars"/><g class="lines"><path class="js-line" d="M0,430.85L36.83,421.53L73.67,399.19L110.5,380.07L147.33,359.7L184.17,340.98L221,325.14L257.83,318.25L294.67,315.83L368.33,316.33L405.17,315.33L478.83,314.3L515.67,314.13L552.5,314.16L589.33,318.78L663,319.85L699.83,319.82L847.17,320.32" style="vector-effect: none; fill: none; stroke: rgb(11, 79, 56); stroke-opacity: 1; stroke-width: 2px; opacity: 1;"/></g><g class="points"/><g class="text"/></g></g></g></g><g class="zerolinelayer-above"/><path class="xlines-above crisp" d="M72,620.5H957" style="fill: none; stroke-width: 1px; stroke: rgb(58, 58, 55); stroke-opacity: 1;"/><path class="ylines-above crisp" d="M72.5,90V620" style="fill: none; stroke-width: 1px; stroke: rgb(58, 58, 55); stroke-opacity: 1;"/><g class="overlines-above"/><g class="xaxislayer-above"><g class="xtick"><text text-anchor="middle" x="0" y="635.4" transform="translate(73,0)" style="font-family: 'Open Sans', verdana, arial, sans-serif; font-size: 12px; fill: rgb(195, 194, 183); fill-opacity: 1; white-space: pre;">1</text></g><g class="xtick"><text text-anchor="middle" x="0" y="635.4" style="font-family: 'Open Sans', verdana, arial, sans-serif; font-size: 12px; fill: rgb(195, 194, 183); fill-opacity: 1; white-space: pre;" transform="translate(195.36,0)">10</text></g><g class="xtick"><text text-anchor="middle" x="0" y="635.4" style="font-family: 'Open Sans', verdana, arial, sans-serif; font-size: 12px; fill: rgb(195, 194, 183); fill-opacity: 1; white-space: pre;" transform="translate(317.72,0)">100</text></g><g class="xtick"><text text-anchor="middle" x="0" y="635.4" style="font-family: 'Open Sans', verdana, arial, sans-serif; font-size: 12px; fill: rgb(195, 194, 183); fill-opacity: 1; white-space: pre;" transform="translate(440.07,0)">1000</text></g><g class="xtick"><text text-anchor="middle" x="0" y="635.4" style="font-family: 'Open Sans', verdana, arial, sans-serif; font-size: 12px; fill: rgb(195, 194, 183); fill-opacity: 1; white-space: pre;" transform="translate(562.4300000000001,0)">10k</text></g><g class="xtick"><text text-anchor="middle" x="0" y="635.4" style="font-family: 'Open Sans', verdana, arial, sans-serif; font-size: 12px; fill: rgb(195, 194, 183); fill-opacity: 1; white-space: pre;" transform="translate(684.79,0)">100k</text></g><g class="xtick"><text text-anchor="middle" x="0" y="635.4" style="font-family: 'Open Sans', verdana, arial, sans-serif; font-size: 12px; fill: rgb(195, 194, 183); fill-opacity: 1; white-space: pre;" transform="translate(807.15,0)">1M</text></g><g class="xtick"><text text-anchor="middle" x="0" y="635.4" style="font-family: 'Open Sans', verdana, arial, sans-serif; font-size: 12px; fill: rgb(195, 194, 183); fill-opacity: 1; white-space: pre;" transform="translate(929.5,0)">10M</text></g></g><g class="yaxislayer-above"><g class="ytick"><text text-anchor="end" x="69.6" y="4.199999999999999" transform="translate(0,617.47)" style="font-family: 'Open Sans', verdana, arial, sans-serif; font-size: 12px; fill: rgb(195, 194, 183); fill-opacity: 1; white-space: pre;">1000</text></g><g class="ytick"><text text-anchor="end" x="69.6" y="4.199999999999999" style="font-family: 'Open Sans', verdana, arial, sans-serif; font-size: 12px; fill: rgb(195, 194, 183); fill-opacity: 1; white-space: pre;" transform="translate(0,544.48)">10k</text></g><g class="ytick"><text text-anchor="end" x="69.6" y="4.199999999999999" style="font-family: 'Open Sans', verdana, arial, sans-serif; font-size: 12px; fill: rgb(195, 194, 183); fill-opacity: 1; white-space: pre;" transform="translate(0,471.49)">100k</text></g><g class="ytick"><text text-anchor="end" x="69.6" y="4.199999999999999" style="font-family: 'Open Sans', verdana, arial, sans-serif; font-size: 12px; fill: rgb(195, 194, 183); fill-opacity: 1; white-space: pre;" transform="translate(0,398.5)">1M</text></g><g class="ytick"><text text-anchor="end" x="69.6" y="4.199999999999999" style="font-family: 'Open Sans', verdana, arial, sans-serif; font-size: 12px; fill: rgb(195, 194, 183); fill-opacity: 1; white-space: pre;" transform="translate(0,325.51)">10M</text></g><g class="ytick"><text text-anchor="end" x="69.6" y="4.199999999999999" style="font-family: 'Open Sans', verdana, arial, sans-serif; font-size: 12px; fill: rgb(195, 194, 183); fill-opacity: 1; white-space: pre;" transform="translate(0,252.52)">100M</text></g><g class="ytick"><text text-anchor="end" x="69.6" y="4.199999999999999" style="font-family: 'Open Sans', verdana, arial, sans-serif; font-size: 12px; fill: rgb(195, 194, 183); fill-opacity: 1; white-space: pre;" transform="translate(0,179.53)">1B</text></g><g class="ytick"><text text-anchor="end" x="69.6" y="4.199999999999999" style="font-family: 'Open Sans', verdana, arial, sans-serif; font-size: 12px; fill: rgb(195, 194, 183); fill-opacity: 1; white-space: pre;" transform="translate(0,106.53999999999999)">10B</text></g></g><g class="overaxes-above"/></g></g><g class="polarlayer"/><g class="smithlayer"/><g class="ternarylayer"/><g class="geolayer"/><g class="funnelarealayer"/><g class="pielayer"/><g class="iciclelayer"/><g class="treemaplayer"/><g class="sunburstlayer"/><g class="glimages"/><defs id="topdefs-49ff7d"><g class="clips"/><clipPath id="legend49ff7d"><rect width="113" height="481" x="0" y="0"/></clipPath></defs><g class="layer-above"><g class="imagelayer"/><g class="shapelayer"/></g><g class="infolayer"><g class="legend" pointer-events="all" transform="translate(974.6800000000001,90)"><rect class="bg" shape-rendering="crispEdges" style="stroke: rgb(68, 68, 68); stroke-opacity: 1; fill: rgb(26, 26, 25); fill-opacity: 1; stroke-width: 0px;" width="113" height="481" x="0" y="0"/><g class="scrollbox" transform="" clip-path="url(#legend49ff7d)"><g class="groups" transform=""><g class="traces" transform="translate(0,14.950000000000001)" style="opacity: 1;"><text class="legendtext" text-anchor="start" x="5" y="5.07" style="font-family: 'Open Sans', verdana, arial, sans-serif; font-size: 13px; fill: rgb(195, 194, 183); fill-opacity: 1; white-space: pre;">hpc</text><g class="layers"><g class="legendfill"/><g class="legendlines"/><g class="legendsymbols"><g class="legendpoints"/></g></g><rect class="legendtoggle" x="0" y="-9.950000000000001" width="107.421875" height="19.900000000000002" style="fill: rgb(0, 0, 0); fill-opacity: 0;"/></g><g class="traces" transform="translate(0,34.400000000000006)" style="opacity: 1;"><text class="legendtext" text-anchor="start" x="40" y="4.680000000000001" style="font-family: 'Open Sans', verdana, arial, sans-serif; font-size: 12px; fill: rgb(195, 194, 183); fill-opacity: 1; white-space: pre;">h100</text><g class="layers" style="opacity: 1;"><g class="legendfill"/><g class="legendlines"><path class="js-line" d="M5,0h30" style="fill: none; stroke: rgb(168, 204, 246); stroke-opacity: 1; stroke-width: 2px;"/></g><g class="legendsymbols"><g class="legendpoints"/></g></g><rect class="legendtoggle" x="0" y="-9.5" width="107.421875" height="19" style="fill: rgb(0, 0, 0); fill-opacity: 0;"/></g><g class="traces" transform="translate(0,53.400000000000006)" style="opacity: 1;"><text class="legendtext" text-anchor="start" x="40" y="4.680000000000001" style="font-family: 'Open Sans', verdana, arial, sans-serif; font-size: 12px; fill: rgb(195, 194, 183); fill-opacity: 1; white-space: pre;">gh200</text><g class="layers" style="opacity: 1;"><g class="legendfill"/><g class="legendlines"><path class="js-line" d="M5,0h30" style="fill: none; stroke: rgb(109, 167, 236); stroke-opacity: 1; stroke-width: 2px;"/></g><g class="legendsymbols"><g class="legendpoints"/></g></g><rect class="legendtoggle" x="0" y="-9.5" width="107.421875" height="19" style="fill: rgb(0, 0, 0); fill-opacity: 0;"/></g><g class="traces" transform="translate(0,72.4)" style="opacity: 1;"><text class="legendtext" text-anchor="start" x="40" y="4.680000000000001" style="font-family: 'Open Sans', verdana, arial, sans-serif; font-size: 12px; fill: rgb(195, 194, 183); fill-opacity: 1; white-space: pre;">a100</text><g class="layers" style="opacity: 1;"><g class="legendfill"/><g class="legendlines"><path class="js-line" d="M5,0h30" style="fill: none; stroke: rgb(42, 120, 214); stroke-opacity: 1; stroke-width: 2px;"/></g><g class="legendsymbols"><g class="legendpoints"/></g></g><rect class="legendtoggle" x="0" y="-9.5" width="107.421875" height="19" style="fill: rgb(0, 0, 0); fill-opacity: 0;"/></g><g class="traces" transform="translate(0,91.4)" style="opacity: 1;"><text class="legendtext" text-anchor="start" x="40" y="4.680000000000001" style="font-family: 'Open Sans', verdana, arial, sans-serif; font-size: 12px; fill: rgb(195, 194, 183); fill-opacity: 1; white-space: pre;">v100</text><g class="layers" style="opacity: 1;"><g class="legendfill"/><g class="legendlines"><path class="js-line" d="M5,0h30" style="fill: none; stroke: rgb(28, 92, 171); stroke-opacity: 1; stroke-width: 2px;"/></g><g class="legendsymbols"><g class="legendpoints"/></g></g><rect class="legendtoggle" x="0" y="-9.5" width="107.421875" height="19" style="fill: rgb(0, 0, 0); fill-opacity: 0;"/></g></g><g class="groups" transform="translate(0,10)"><g class="traces" transform="translate(0,110.85000000000001)" style="opacity: 1;"><text class="legendtext" text-anchor="start" x="5" y="5.07" style="font-family: 'Open Sans', verdana, arial, sans-serif; font-size: 13px; fill: rgb(195, 194, 183); fill-opacity: 1; white-space: pre;">server</text><g class="layers"><g class="legendfill"/><g class="legendlines"/><g class="legendsymbols"><g class="legendpoints"/></g></g><rect class="legendtoggle" x="0" y="-9.950000000000001" width="107.421875" height="19.900000000000002" style="fill: rgb(0, 0, 0); fill-opacity: 0;"/></g><g class="traces" transform="translate(0,130.3)" style="opacity: 1;"><text class="legendtext" text-anchor="start" x="40" y="4.680000000000001" style="font-family: 'Open Sans', verdana, arial, sans-serif; font-size: 12px; fill: rgb(195, 194, 183); fill-opacity: 1; white-space: pre;">l40s</text><g class="layers" style="opacity: 1;"><g class="legendfill"/><g class="legendlines"><path class="js-line" d="M5,0h30" style="fill: none; stroke: rgb(247, 221, 161); stroke-opacity: 1; stroke-width: 2px;"/></g><g class="legendsymbols"><g class="legendpoints"/></g></g><rect class="legendtoggle" x="0" y="-9.5" width="107.421875" height="19" style="fill: rgb(0, 0, 0); fill-opacity: 0;"/></g><g class="traces" transform="translate(0,149.3)" style="opacity: 1;"><text class="legendtext" text-anchor="start" x="40" y="4.680000000000001" style="font-family: 'Open Sans', verdana, arial, sans-serif; font-size: 12px; fill: rgb(195, 194, 183); fill-opacity: 1; white-space: pre;">a40</text><g class="layers" style="opacity: 1;"><g class="legendfill"/><g class="legendlines"><path class="js-line" d="M5,0h30" style="fill: none; stroke: rgb(238, 195, 105); stroke-opacity: 1; stroke-width: 2px;"/></g><g class="legendsymbols"><g class="legendpoints"/></g></g><rect class="legendtoggle" x="0" y="-9.5" width="107.421875" height="19" style="fill: rgb(0, 0, 0); fill-opacity: 0;"/></g><g class="traces" transform="translate(0,168.3)" style="opacity: 1;"><text class="legendtext" text-anchor="start" x="40" y="4.680000000000001" style="font-family: 'Open Sans', verdana, arial, sans-serif; font-size: 12px; fill: rgb(195, 194, 183); fill-opacity: 1; white-space: pre;">l4</text><g class="layers" style="opacity: 1;"><g class="legendfill"/><g class="legendlines"><path class="js-line" d="M5,0h30" style="fill: none; stroke: rgb(224, 164, 31); stroke-opacity: 1; stroke-width: 2px;"/></g><g class="legendsymbols"><g class="legendpoints"/></g></g><rect class="legendtoggle" x="0" y="-9.5" width="107.421875" height="19" style="fill: rgb(0, 0, 0); fill-opacity: 0;"/></g><g class="traces" transform="translate(0,187.3)" style="opacity: 1;"><text class="legendtext" text-anchor="start" x="40" y="4.680000000000001" style="font-family: 'Open Sans', verdana, arial, sans-serif; font-size: 12px; fill: rgb(195, 194, 183); fill-opacity: 1; white-space: pre;">m40</text><g class="layers" style="opacity: 1;"><g class="legendfill"/><g class="legendlines"><path class="js-line" d="M5,0h30" style="fill: none; stroke: rgb(201, 133, 0); stroke-opacity: 1; stroke-width: 2px;"/></g><g class="legendsymbols"><g class="legendpoints"/></g></g><rect class="legendtoggle" x="0" y="-9.5" width="107.421875" height="19" style="fill: rgb(0, 0, 0); fill-opacity: 0;"/></g><g class="traces" transform="translate(0,206.3)" style="opacity: 1;"><text class="legendtext" text-anchor="start" x="40" y="4.680000000000001" style="font-family: 'Open Sans', verdana, arial, sans-serif; font-size: 12px; fill: rgb(195, 194, 183); fill-opacity: 1; white-space: pre;">a16</text><g class="layers" style="opacity: 1;"><g class="legendfill"/><g class="legendlines"><path class="js-line" d="M5,0h30" style="fill: none; stroke: rgb(143, 94, 0); stroke-opacity: 1; stroke-width: 2px;"/></g><g class="legendsymbols"><g class="legendpoints"/></g></g><rect class="legendtoggle" x="0" y="-9.5" width="107.421875" height="19" style="fill: rgb(0, 0, 0); fill-opacity: 0;"/></g></g><g class="groups" transform="translate(0,20)"><g class="traces" transform="translate(0,225.75)" style="opacity: 1;"><text class="legendtext" text-anchor="start" x="5" y="5.07" style="font-family: 'Open Sans', verdana, arial, sans-serif; font-size: 13px; fill: rgb(195, 194, 183); fill-opacity: 1; white-space: pre;">consumer</text><g class="layers"><g class="legendfill"/><g class="legendlines"/><g class="legendsymbols"><g class="legendpoints"/></g></g><rect class="legendtoggle" x="0" y="-9.950000000000001" width="107.421875" height="19.900000000000002" style="fill: rgb(0, 0, 0); fill-opacity: 0;"/></g><g class="traces" transform="translate(0,245.20000000000002)" style="opacity: 1;"><text class="legendtext" text-anchor="start" x="40" y="4.680000000000001" style="font-family: 'Open Sans', verdana, arial, sans-serif; font-size: 12px; fill: rgb(195, 194, 183); fill-opacity: 1; white-space: pre;">rtx_8000</text><g class="layers" style="opacity: 1;"><g class="legendfill"/><g class="legendlines"><path class="js-line" d="M5,0h30" style="fill: none; stroke: rgb(246, 191, 162); stroke-opacity: 1; stroke-width: 2px;"/></g><g class="legendsymbols"><g class="legendpoints"/></g></g><rect class="legendtoggle" x="0" y="-9.5" width="107.421875" height="19" style="fill: rgb(0, 0, 0); fill-opacity: 0;"/></g><g class="traces" transform="translate(0,264.20000000000005)" style="opacity: 1;"><text class="legendtext" text-anchor="start" x="40" y="4.680000000000001" style="font-family: 'Open Sans', verdana, arial, sans-serif; font-size: 12px; fill: rgb(195, 194, 183); fill-opacity: 1; white-space: pre;">2080_ti</text><g class="layers" style="opacity: 1;"><g class="legendfill"/><g class="legendlines"><path class="js-line" d="M5,0h30" style="fill: none; stroke: rgb(227, 115, 68); stroke-opacity: 1; stroke-width: 2px;"/></g><g class="legendsymbols"><g class="legendpoints"/></g></g><rect class="legendtoggle" x="0" y="-9.5" width="107.421875" height="19" style="fill: rgb(0, 0, 0); fill-opacity: 0;"/></g><g class="traces" transform="translate(0,283.20000000000005)" style="opacity: 1;"><text class="legendtext" text-anchor="start" x="40" y="4.680000000000001" style="font-family: 'Open Sans', verdana, arial, sans-serif; font-size: 12px; fill: rgb(195, 194, 183); fill-opacity: 1; white-space: pre;">a4000</text><g class="layers" style="opacity: 1;"><g class="legendfill"/><g class="legendlines"><path class="js-line" d="M5,0h30" style="fill: none; stroke: rgb(217, 89, 38); stroke-opacity: 1; stroke-width: 2px;"/></g><g class="legendsymbols"><g class="legendpoints"/></g></g><rect class="legendtoggle" x="0" y="-9.5" width="107.421875" height="19" style="fill: rgb(0, 0, 0); fill-opacity: 0;"/></g><g class="traces" transform="translate(0,302.20000000000005)" style="opacity: 1;"><text class="legendtext" text-anchor="start" x="40" y="4.680000000000001" style="font-family: 'Open Sans', verdana, arial, sans-serif; font-size: 12px; fill: rgb(195, 194, 183); fill-opacity: 1; white-space: pre;">titan_x</text><g class="layers" style="opacity: 1;"><g class="legendfill"/><g class="legendlines"><path class="js-line" d="M5,0h30" style="fill: none; stroke: rgb(201, 73, 26); stroke-opacity: 1; stroke-width: 2px;"/></g><g class="legendsymbols"><g class="legendpoints"/></g></g><rect class="legendtoggle" x="0" y="-9.5" width="107.421875" height="19" style="fill: rgb(0, 0, 0); fill-opacity: 0;"/></g><g class="traces" transform="translate(0,321.20000000000005)" style="opacity: 1;"><text class="legendtext" text-anchor="start" x="40" y="4.680000000000001" style="font-family: 'Open Sans', verdana, arial, sans-serif; font-size: 12px; fill: rgb(195, 194, 183); fill-opacity: 1; white-space: pre;">1080_ti</text><g class="layers" style="opacity: 1;"><g class="legendfill"/><g class="legendlines"><path class="js-line" d="M5,0h30" style="fill: none; stroke: rgb(156, 54, 15); stroke-opacity: 1; stroke-width: 2px;"/></g><g class="legendsymbols"><g class="legendpoints"/></g></g><rect class="legendtoggle" x="0" y="-9.5" width="107.421875" height="19" style="fill: rgb(0, 0, 0); fill-opacity: 0;"/></g></g><g class="groups" transform="translate(0,30)"><g class="traces" transform="translate(0,340.65000000000003)" style="opacity: 1;"><text class="legendtext" text-anchor="start" x="5" y="5.07" style="font-family: 'Open Sans', verdana, arial, sans-serif; font-size: 13px; fill: rgb(195, 194, 183); fill-opacity: 1; white-space: pre;">cpu</text><g class="layers"><g class="legendfill"/><g class="legendlines"/><g class="legendsymbols"><g class="legendpoints"/></g></g><rect class="legendtoggle" x="0" y="-9.950000000000001" width="107.421875" height="19.900000000000002" style="fill: rgb(0, 0, 0); fill-opacity: 0;"/></g><g class="traces" transform="translate(0,360.1)" style="opacity: 1;"><text class="legendtext" text-anchor="start" x="40" y="4.680000000000001" style="font-family: 'Open Sans', verdana, arial, sans-serif; font-size: 12px; fill: rgb(195, 194, 183); fill-opacity: 1; white-space: pre;">cpu-16core</text><g class="layers" style="opacity: 1;"><g class="legendfill"/><g class="legendlines"><path class="js-line" d="M5,0h30" style="fill: none; stroke: rgb(196, 238, 219); stroke-opacity: 1; stroke-width: 2px;"/></g><g class="legendsymbols"><g class="legendpoints"/></g></g><rect class="legendtoggle" x="0" y="-9.5" width="107.421875" height="19" style="fill: rgb(0, 0, 0); fill-opacity: 0;"/></g><g class="traces" transform="translate(0,379.1)" style="opacity: 1;"><text class="legendtext" text-anchor="start" x="40" y="4.680000000000001" style="font-family: 'Open Sans', verdana, arial, sans-serif; font-size: 12px; fill: rgb(195, 194, 183); fill-opacity: 1; white-space: pre;">cpu-8core</text><g class="layers" style="opacity: 1;"><g class="legendfill"/><g class="legendlines"><path class="js-line" d="M5,0h30" style="fill: none; stroke: rgb(78, 196, 155); stroke-opacity: 1; stroke-width: 2px;"/></g><g class="legendsymbols"><g class="legendpoints"/></g></g><rect class="legendtoggle" x="0" y="-9.5" width="107.421875" height="19" style="fill: rgb(0, 0, 0); fill-opacity: 0;"/></g><g class="traces" transform="translate(0,398.1)" style="opacity: 1;"><text class="legendtext" text-anchor="start" x="40" y="4.680000000000001" style="font-family: 'Open Sans', verdana, arial, sans-serif; font-size: 12px; fill: rgb(195, 194, 183); fill-opacity: 1; white-space: pre;">cpu-2core</text><g class="layers" style="opacity: 1;"><g class="legendfill"/><g class="legendlines"><path class="js-line" d="M5,0h30" style="fill: none; stroke: rgb(25, 158, 112); stroke-opacity: 1; stroke-width: 2px;"/></g><g class="legendsymbols"><g class="legendpoints"/></g></g><rect class="legendtoggle" x="0" y="-9.5" width="107.421875" height="19" style="fill: rgb(0, 0, 0); fill-opacity: 0;"/></g><g class="traces" transform="translate(0,417.1)" style="opacity: 1;"><text class="legendtext" text-anchor="start" x="40" y="4.680000000000001" style="font-family: 'Open Sans', verdana, arial, sans-serif; font-size: 12px; fill: rgb(195, 194, 183); fill-opacity: 1; white-space: pre;">cpu-4core</text><g class="layers" style="opacity: 1;"><g class="legendfill"/><g class="legendlines"><path class="js-line" d="M5,0h30" style="fill: none; stroke: rgb(21, 138, 96); stroke-opacity: 1; stroke-width: 2px;"/></g><g class="legendsymbols"><g class="legendpoints"/></g></g><rect class="legendtoggle" x="0" y="-9.5" width="107.421875" height="19" style="fill: rgb(0, 0, 0); fill-opacity: 0;"/></g><g class="traces" transform="translate(0,436.1)" style="opacity: 1;"><text class="legendtext" text-anchor="start" x="40" y="4.680000000000001" style="font-family: 'Open Sans', verdana, arial, sans-serif; font-size: 12px; fill: rgb(195, 194, 183); fill-opacity: 1; white-space: pre;">cpu-1core</text><g class="layers" style="opacity: 1;"><g class="legendfill"/><g class="legendlines"><path class="js-line" d="M5,0h30" style="fill: none; stroke: rgb(11, 79, 56); stroke-opacity: 1; stroke-width: 2px;"/></g><g class="legendsymbols"><g class="legendpoints"/></g></g><rect class="legendtoggle" x="0" y="-9.5" width="107.421875" height="19" style="fill: rgb(0, 0, 0); fill-opacity: 0;"/></g></g></g><rect class="scrollbar" rx="20" ry="3" width="0" height="0" style="fill: rgb(128, 139, 164); fill-opacity: 1;" x="0" y="0"/></g><g class="g-gtitle"><text class="gtitle" x="22" y="45" text-anchor="start" dy="0em" style="opacity: 1; font-family: 'Open Sans', verdana, arial, sans-serif; font-size: 17px; fill: rgb(255, 255, 255); fill-opacity: 1; white-space: pre;"><tspan class="line" dy="0em" x="22" y="45">Ackley, d = 64, fp16</tspan><tspan class="line" dy="1.3em" x="22" y="45">​<tspan style="font-size:70%" dy="0.3em">median of per-call throughputs, 95% interval on the median shaded; jit warmed up, batch resident on the device</tspan><tspan dy="-0.21em">​</tspan></tspan><tspan class="line" dy="2.6em" x="22" y="45">​<tspan style="font-size:70%" dy="0.3em">the host's per-call dispatch latency, measured separately, is subtracted off every point</tspan><tspan dy="-0.21em">​</tspan></tspan><tspan class="line" dy="3.9000000000000004em" x="22" y="45">​<tspan style="font-size:70%" dy="0.3em">pascal runs fp16 at 1/64 the f32 rate; turing and newer at twice it</tspan><tspan dy="-0.21em">​</tspan></tspan></text></g><g class="g-xtitle"><text class="xtitle" x="515" y="662.700390625" text-anchor="middle" style="opacity: 1; font-family: 'Open Sans', verdana, arial, sans-serif; font-size: 14px; fill: rgb(195, 194, 183); fill-opacity: 1; white-space: pre;">batch size</text></g><g class="g-ytitle"><text class="ytitle" transform="rotate(-90,16.933984375,355)" x="16.933984375" y="355" text-anchor="middle" style="opacity: 1; font-family: 'Open Sans', verdana, arial, sans-serif; font-size: 14px; fill: rgb(195, 194, 183); fill-opacity: 1; white-space: pre;">evaluations / second</text></g></g></svg>